:FULLY-SPECIFIED
:FORCE-ALL-JOINTS-BE-3DOF
:DEGREES
1631
root -9.86949 15.2755 21.2807 -11.7264 -81.7464 10.1989
lfemur -16.4087 -0.505559 -17.6741
ltibia 54.2703 -0 0
lfoot -24.9552 19.6368 -0.217932
ltoes -38.2846 0 0
rfemur -51.7812 -6.43294 10.5168
rtibia 46.9099 -0 0
rfoot -4.09745 -5.32274 0.382513
rtoes -0.762483 0 0
lowerback 17.7843 -1.06312 -8.66198
upperback 0.035864 -2.8839 4.15661
thorax -9.38161 -0.889899 10.3324
lowerneck 1.901 -12.1726 -12.0846
upperneck 1.09153 -16.8904 11.7125
head 2.48062 -8.50713 5.25029
lclavicle 4.18083e-15 -2.67074e-14 5.31274e-30
lhumerus -12.4902 -46.3594 93.1512
lradius 76.3452 -0 0
lwrist 16.0722 0 0
lhand -20.1425 41.2313 0.0316636
lfingers 7.12502 -0 0
lthumb 6.1992 71.0176 0.0193441
rclavicle 4.18083e-15 -2.67074e-14 5.31274e-30
rhumerus 27.5674 23.5335 -46.7482
rradius 113.298 -0 0
rwrist -33.9812 0 0
rhand 46.4 -25.4448 0.882547
rfingers 7.12502 -0 0
rthumb 51.2713 -24.8742 6.81533
1632
root -9.86378 15.2702 21.3089 -11.3086 -81.9022 9.86749
lfemur -16.5693 -0.509901 -17.6896
ltibia 54.4581 -0 0
lfoot -25.0257 19.7499 -0.217189
ltoes -38.2509 0 0
rfemur -51.7824 -6.46684 10.6122
rtibia 46.7705 -0 0
rfoot -4.19848 -5.60984 0.387494
rtoes -0.640071 0 0
lowerback 17.7991 -1.06805 -8.63415
upperback 0.0623308 -2.88506 4.17257
thorax -9.35974 -0.894531 10.3344
lowerneck 2.01759 -12.2641 -12.1545
upperneck 0.94622 -17.024 11.8826
head 2.4534 -8.57792 5.30902
lclavicle 4.58401e-15 -2.74116e-14 5.31607e-30
lhumerus -12.6184 -46.4219 93.1088
lradius 76.6691 -0 0
lwrist 16.4332 0 0
lhand -20.0021 41.2359 0.0315756
lfingers 7.12502 -0 0
lthumb 6.33475 71.0182 0.0192616
rclavicle 4.58401e-15 -2.74116e-14 5.31607e-30
rhumerus 28.0982 23.5989 -46.2066
rradius 113.135 -0 0
rwrist -33.8668 0 0
rhand 45.8349 -25.5557 0.892128
rfingers 7.12502 -0 0
rthumb 51.0284 -25.5641 6.72444
1633
root -9.85791 15.2648 21.3372 -10.8779 -82.0595 9.5236
lfemur -16.7309 -0.513747 -17.7048
ltibia 54.6465 -0 0
lfoot -25.096 19.8635 -0.216276
ltoes -38.2161 0 0
rfemur -51.7831 -6.50088 10.7079
rtibia 46.6315 -0 0
rfoot -4.29996 -5.89784 0.39201
rtoes -0.518506 0 0
lowerback 17.8138 -1.07296 -8.60597
upperback 0.0887972 -2.88612 4.18855
thorax -9.33784 -0.899137 10.3362
lowerneck 2.13423 -12.3551 -12.2242
upperneck 0.800277 -17.1568 12.053
head 2.42604 -8.64847 5.36766
lclavicle 4.98566e-15 -2.81149e-14 5.31526e-30
lhumerus -12.7464 -46.4828 93.0658
lradius 76.9928 -0 0
lwrist 16.7933 0 0
lhand -19.8617 41.2408 0.0314558
lfingers 7.12502 -0 0
lthumb 6.47026 71.0189 0.0191576
rclavicle 4.98566e-15 -2.81149e-14 5.31526e-30
rhumerus 28.6281 23.6606 -45.6645
rradius 112.973 -0 0
rwrist -33.7532 0 0
rhand 45.2679 -25.6671 0.900696
rfingers 7.12502 -0 0
rthumb 50.7904 -26.2456 6.63127
1634
root -9.85188 15.2595 21.3654 -10.4334 -82.2182 9.16629
lfemur -16.8933 -0.517109 -17.7195
ltibia 54.8355 -0 0
lfoot -25.166 19.9774 -0.215195
ltoes -38.1803 0 0
rfemur -51.7833 -6.53505 10.8038
rtibia 46.4928 -0 0
rfoot -4.40182 -6.18661 0.396054
rtoes -0.397797 0 0
lowerback 17.8285 -1.07787 -8.57744
upperback 0.115255 -2.88709 4.20453
thorax -9.31592 -0.903716 10.3377
lowerneck 2.25089 -12.4457 -12.2938
upperneck 0.653754 -17.2887 12.2235
head 2.39855 -8.71876 5.42621
lclavicle 5.38572e-15 -2.88173e-14 5.31034e-30
lhumerus -12.8741 -46.5424 93.0222
lradius 77.3161 -0 0
lwrist 17.1524 0 0
lhand -19.7214 41.2457 0.0313045
lfingers 7.12502 -0 0
lthumb 6.6057 71.0198 0.0190319
rclavicle 5.38572e-15 -2.88173e-14 5.31034e-30
rhumerus 29.1571 23.7188 -45.1222
rradius 112.809 -0 0
rwrist -33.6403 0 0
rhand 44.6991 -25.7789 0.908231
rfingers 7.12502 -0 0
rthumb 50.5572 -26.9186 6.53596
1635
root -9.8457 15.2542 21.3936 -9.97404 -82.3782 8.79451
lfemur -17.0564 -0.520003 -17.7338
ltibia 55.025 -0 0
lfoot -25.2359 20.0915 -0.213947
ltoes -38.1436 0 0
rfemur -51.7829 -6.56934 10.8999
rtibia 46.3545 -0 0
rfoot -4.50402 -6.47601 0.399617
rtoes -0.277955 0 0
lowerback 17.843 -1.08276 -8.54861
upperback 0.141695 -2.88798 4.22052
thorax -9.29399 -0.908267 10.3391
lowerneck 2.36754 -12.5358 -12.3633
upperneck 0.506703 -17.4197 12.3941
head 2.37094 -8.78877 5.48464
lclavicle 5.78413e-15 -2.95183e-14 5.3013e-30
lhumerus -13.0015 -46.6005 92.978
lradius 77.6391 -0 0
lwrist 17.5105 0 0
lhand -19.5812 41.2508 0.0311218
lfingers 7.12502 -0 0
lthumb 6.74103 71.0208 0.0188849
rclavicle 5.78413e-15 -2.95183e-14 5.3013e-30
rhumerus 29.6849 23.7733 -44.5799
rradius 112.646 -0 0
rwrist -33.5282 0 0
rhand 44.1288 -25.891 0.914719
rfingers 7.12502 -0 0
rthumb 50.3288 -27.5834 6.43864
